Coordinates
version=1
nRows=29
nColumns=24
inDegrees=yes

Units are S.I. units (second, meters, Newtons, ...)
Angles are in degrees.

endheader
time	pelvis_tilt	pelvis_list	pelvis_rotation	pelvis_tx	pelvis_ty	pelvis_tz	hip_flexion_r	hip_adduction_r	hip_rotation_r	knee_angle_r	ankle_angle_r	subtalar_angle_r	mtp_angle_r	hip_flexion_l	hip_adduction_l	hip_rotation_l	knee_angle_l	ankle_angle_l	subtalar_angle_l	mtp_angle_l	lumbar_extension	lumbar_bending	lumbar_rotation
      3.58000000	     -5.28509798	      8.41023658	      2.85555079	     -0.56953705	     -0.01948759	     -0.17581561	     31.12129515	    -10.06201585	     -4.64821331	    -66.81744710	    -10.29979600	      5.69185557	     23.74651366	     12.09787575	     17.01655635	     -0.38197827	    -18.05357772	      8.74571693	      1.50180153	    -13.08974413	      5.28401507	     -9.75462627	     -2.39039134
      3.58500000	     -5.31781681	      8.20397662	      2.88019326	     -0.56314197	     -0.01893999	     -0.17578939	     31.89460135	     -9.76702678	     -4.73650201	    -65.82026621	     -9.74754726	      5.68817101	     23.78334503	     11.36844217	     16.79977643	     -0.10957098	    -17.63714244	      9.00547480	      1.55194797	    -13.16827230	      5.29287008	     -9.54857050	     -2.43465241
      3.59000000	     -5.09819245	      7.98657689	      3.00250176	     -0.55670244	     -0.01816164	     -0.17601717	     32.27452077	     -9.57015777	     -4.98864377	    -64.70847655	     -9.03120783	      5.90732902	     23.71307640	     10.31155963	     16.60529840	      0.34484512	    -17.17687059	      9.29345325	      1.50576638	    -13.55934823	      5.00935343	     -9.32988262	     -2.72874997
      3.59500000	     -5.00670299	      7.78635655	      3.04426245	     -0.55028413	     -0.01760634	     -0.17608558	     32.82360047	     -9.32205824	     -5.13082700	    -63.58746283	     -8.36645832	      6.00617161	     23.25667095	      9.43415077	     16.39946985	      0.65231859	    -16.75985074	      9.66138606	      1.53666154	    -14.21753048	      4.87757804	     -9.12110518	     -2.85994288
      3.60000000	     -5.01549658	      7.55822591	      3.15428874	     -0.54392791	     -0.01724309	     -0.17624399	     33.43882369	     -9.09765227	     -5.32686610	    -62.36403853	     -7.84171378	      6.03404421	     23.18608242	      8.71574043	     16.15827967	      0.84594035	    -16.40459097	      9.98689117	      1.69560004	    -14.23281858	      4.84373332	     -8.89350628	     -3.06148896
      3.60500000	     -4.89414241	      7.34710691	      3.27180318	     -0.53761980	     -0.01677552	     -0.17629483	     33.85460351	     -8.88121202	     -5.53700028	    -61.05561771	     -7.24981132	      6.01882144	     22.90281130	      7.86011053	     15.91322450	      1.05877612	    -16.05499066	     10.27501256	      1.89391538	    -14.31094818	      4.64281391	     -8.70645493	     -3.31244246
      3.61000000	     -4.95117653	      7.17051469	      3.31676896	     -0.53131911	     -0.01663976	     -0.17630743	     34.50314658	     -8.66341042	     -5.62245188	    -59.73706279	     -6.76789479	      5.97170584	     22.74772653	      7.21325150	     15.70910879	      1.21510698	    -15.69501444	     10.55161835	      1.99449334	    -14.30781771	      4.65369225	     -8.53594943	     -3.39524751
      3.61500000	     -4.73349338	      6.95655870	      3.41416671	     -0.52496357	     -0.01620993	     -0.17637793	     34.75113258	     -8.46008303	     -5.86903056	    -58.36115544	     -6.07876248	      6.06210767	     21.76673728	      6.24369067	     15.45101811	      1.35111748	    -15.32181958	     10.91566133	      2.21670272	    -14.52944282	      4.36007422	     -8.32437501	     -3.65821554
      3.62000000	     -4.72172268	      6.74144524	      3.55572105	     -0.51873610	     -0.01606480	     -0.17646814	     35.20434986	     -8.26932096	     -6.05984339	    -56.87954997	     -5.57449447	      6.07552670	     21.45916522	      5.56857957	     15.20746944	      1.50046469	    -15.05146428	     11.21338114	      2.35764984	    -14.56219196	      4.26481327	     -8.13092093	     -3.94521316
      3.62500000	     -4.64613089	      6.54655693	      3.63134700	     -0.51248598	     -0.01592080	     -0.17643791	     35.56827523	     -8.05608435	     -6.18877619	    -55.35227352	     -5.06471555	      6.10705980	     21.00418352	      4.80640671	     14.96841033	      1.62060835	    -14.73504279	     11.50791648	      2.48642110	    -14.63204771	      4.10786521	     -7.95146538	     -4.14328826
      3.63000000	     -4.59680254	      6.36171359	      3.70361258	     -0.50626113	     -0.01586517	     -0.17639748	     35.93407574	     -7.85347097	     -6.29214733	    -53.77762731	     -4.55096239	      6.20130572	     20.52836781	      4.08789712	     14.74374126	      1.73027143	    -14.43863790	     11.79281651	      2.57784486	    -14.72358922	      3.97775750	     -7.78094057	     -4.33287750
      3.63500000	     -4.55036083	      6.18936785	      3.75931406	     -0.50006692	     -0.01586570	     -0.17629734	     36.27439317	     -7.64970216	     -6.35583065	    -52.14986333	     -4.03900016	      6.34353410	     20.05637125	      3.37891039	     14.52906926	      1.83167614	    -14.14421737	     12.06303497	      2.64228881	    -14.84305794	      3.84204531	     -7.63134381	     -4.50956465
      3.64000000	     -4.51511961	      6.02922638	      3.80376450	     -0.49389850	     -0.01593309	     -0.17616381	     36.59525701	     -7.45216326	     -6.39128775	    -50.46795701	     -3.53683824	      6.53101495	     19.63044488	      2.69348425	     14.32833223	      1.91282444	    -13.86238165	     12.31801394	      2.67258424	    -14.98012070	      3.71500491	     -7.49117829	     -4.66592528
      3.64500000	     -4.49247032	      5.88114392	      3.83345634	     -0.48775367	     -0.01605685	     -0.17598853	     36.89621599	     -7.25421537	     -6.37973856	    -48.72932069	     -3.05769446	      6.76255543	     19.25222193	      2.02819724	     14.13909534	      1.98430925	    -13.58602361	     12.55949889	      2.68549596	    -15.12792566	      3.59634678	     -7.36687104	     -4.80914355
      3.65000000	     -4.57617119	      5.75026080	      3.84684840	     -0.48167443	     -0.01633554	     -0.17576166	     37.29458871	     -7.04805119	     -6.26145053	    -46.93790461	     -2.69308575	      6.99425834	     19.04097087	      1.50650469	     13.97304527	      2.03180754	    -13.34372840	     12.76594831	      2.67786218	    -15.19495285	      3.58408411	     -7.26476416	     -4.91392824
      3.65500000	     -4.42768992	      5.61888360	      3.87883899	     -0.47554972	     -0.01639743	     -0.17558171	     37.35479339	     -6.88333055	     -6.27035526	    -45.07964411	     -2.15285586	      7.33478352	     18.67331847	      0.69764836	     13.79099315	      2.07373522	    -13.05532118	     12.99016990	      2.70498176	    -15.39561219	      3.31887045	     -7.14866458	     -5.09485785
      3.66000000	     -4.39914029	      5.50471591	      3.88981846	     -0.46948749	     -0.01662113	     -0.17531612	     37.52976990	     -6.70420672	     -6.17202946	    -43.19042068	     -1.69888450	      7.68014661	     18.32080422	      0.04771492	     13.62850251	      2.09329843	    -12.80634509	     13.20592066	      2.73359557	    -15.61104450	      3.16971134	     -7.06373643	     -5.23293034
      3.66500000	     -4.46602193	      5.40750044	      3.90137156	     -0.46349085	     -0.01697515	     -0.17507929	     37.77991657	     -6.53867177	     -5.98751618	    -41.25559910	     -1.35543551	      8.01910957	     18.11466180	     -0.46523705	     13.49221861	      2.09125160	    -12.60751311	     13.39315170	      2.77150387	    -15.71738785	      3.12052702	     -6.98801292	     -5.34671544
      3.67000000	     -4.41583379	      5.30203478	      3.91008181	     -0.45747671	     -0.01722163	     -0.17480644	     37.83394359	     -6.37573001	     -5.85756215	    -39.25884369	     -0.94362432	      8.41853463	     17.89255794	     -1.11677671	     13.32645105	      2.04968742	    -12.38984570	     13.59355657	      2.88721912	    -15.85781271	      2.93269150	     -6.90745220	     -5.48579427
      3.67500000	     -4.27568621	      5.22531947	      3.91707305	     -0.45145883	     -0.01741332	     -0.17450294	     37.74532891	     -6.24945538	     -5.78500626	    -37.23967971	     -0.47879489	      8.76479540	     17.58014691	     -1.86639643	     13.17237431	      1.91429020	    -12.17608482	     13.82656102	      3.12934040	    -16.08069947	      2.64269993	     -6.86140659	     -5.67360157
      3.68000000	     -4.29289924	      5.14460636	      3.92412460	     -0.44551440	     -0.01777312	     -0.17423459	     37.80228680	     -6.11214605	     -5.58355257	    -35.19562447	     -0.15945719	      9.14913184	     17.34355795	     -2.39869825	     13.02558170	      1.81198194	    -12.03887534	     14.04583386	      3.36834604	    -16.20919879	      2.51676004	     -6.79888329	     -5.79154266
      3.68500000	     -4.14973343	      5.07062004	      3.92403402	     -0.43951023	     -0.01799398	     -0.17390435	     37.62833384	     -5.98797899	     -5.49059283	    -33.12772424	      0.25373289	      9.48198502	     17.04839300	     -3.10773617	     12.85009865	      1.52950304	    -11.90333460	     14.32931686	      3.85007731	    -16.38312632	      2.21809449	     -6.75310725	     -5.98688978
      3.69000000	     -4.05280665	      5.01275134	      3.94524700	     -0.43364497	     -0.01827913	     -0.17350386	     37.47918238	     -5.86063964	     -5.25847831	    -31.06906211	      0.59713330	      9.74159671	     16.59151472	     -3.67501068	     12.66717443	      1.09259570	    -11.94152217	     14.79340666	      4.65793076	    -16.70477826	      1.93204545	     -6.73410653	     -6.20283103
      3.69500000	     -3.98422629	      4.94720731	      3.94002378	     -0.42767528	     -0.01859386	     -0.17318231	     37.33809309	     -5.74849459	     -5.09564687	    -29.02660844	      0.89452054	     10.09728687	     16.27721969	     -4.24145622	     12.48196831	      0.67558703	    -11.92315237	     15.15913442	      5.41246151	    -16.95366350	      1.70323262	     -6.68946340	     -6.38674217
      3.70000000	     -3.92360203	      4.87349430	      3.91596205	     -0.42159973	     -0.01896908	     -0.17285482	     37.18446500	     -5.62753186	     -4.97927226	    -27.02268089	      1.22801988	     10.44162455	     15.94334112	     -4.79400421	     12.28185106	      0.21781768	    -11.92194770	     15.51181476	      6.18778965	    -17.07665730	      1.51578042	     -6.62159980	     -6.50035323
      3.70500000	     -3.83452910	      4.83461077	      3.91583762	     -0.41560859	     -0.01935136	     -0.17245459	     36.99420199	     -5.53333253	     -4.76906600	    -25.09872293	      1.54411657	     10.74744788	     15.40340304	     -5.31350144	     12.08378355	     -0.39692790	    -12.04348952	     15.95480592	      7.26638755	    -17.19139011	      1.26179795	     -6.61110546	     -6.70128752
      3.71000000	     -3.89629570	      4.84488230	      3.91140350	     -0.40963036	     -0.01997677	     -0.17196219	     36.99987750	     -5.46124189	     -4.39456527	    -23.33166355	      1.88339856	     10.99891907	     14.38961535	     -5.57368737	     11.91937446	     -1.24283777	    -12.37734800	     16.65026375	      8.69358762	    -17.73868268	      1.16296145	     -6.66988844	     -6.86290991
      3.71500000	     -3.74845934	      4.84289027	      3.92583431	     -0.40348896	     -0.02039177	     -0.17171319	     36.72812811	     -5.45220029	     -4.26165710	    -21.56387457	      2.22041153	     11.46097015	     14.05513505	     -6.18944689	     11.76623089	     -1.58042775	    -12.47738251	     16.93449349	      9.52092274	    -17.85220402	      0.87042936	     -6.66201395	     -7.04728024
      3.72000000	     -3.66444690	      4.81074047	      3.91784366	     -0.39718782	     -0.02090158	     -0.17124635	     36.51403153	     -5.35118976	     -4.00375002	    -19.90467316	      2.46515777	     11.63278984	     13.17125280	     -6.64781714	     11.52208096	     -2.41840727	    -12.75988618	     17.44713879	     10.95097129	    -18.01776641	      0.68312293	     -6.65906069	     -7.28963047
